<svg width="512" height="512" xmlns="http://www.w3.org/2000/svg">

 <g>
  <title>background</title>
  <rect fill="none" id="canvas_background" height="402" width="582" y="-1" x="-1"/>
 </g>
 <g>
  <title>Layer 1</title>
  <path id="svg_2" d="m255.908,485.999c-6.115,0 -12.322,-1.642 -17.708,-4.746l-56.319,-33.316c-8.397,-4.747 -4.29,-6.389 -1.551,-7.303c11.227,-3.925 13.509,-4.745 25.466,-11.592c1.278,-0.729 2.922,-0.457 4.199,0.366l43.266,25.648c1.553,0.912 3.741,0.912 5.202,0l168.592,-97.304c1.553,-0.913 2.555,-2.738 2.555,-4.563l0,-194.606c0,-1.917 -1.002,-3.651 -2.645,-4.654l-168.502,-97.213c-1.551,-0.913 -3.649,-0.913 -5.202,0l-168.408,97.303c-1.645,0.913 -2.647,2.738 -2.647,4.655l0,194.515c0,1.825 1.003,3.65 2.647,4.473l46.188,26.653c25.102,12.504 40.436,-2.191 40.436,-17.068l0,-192.052c0,-2.738 2.19,-4.837 4.93,-4.837l21.359,0c2.646,0 4.928,2.099 4.928,4.837l0,192.143c0,33.407 -18.256,52.576 -49.928,52.576c-9.768,0 -17.436,0 -38.794,-10.588l-44.18,-25.467c-10.953,-6.299 -17.707,-18.074 -17.707,-30.76l0,-194.516c0,-12.596 6.754,-24.462 17.707,-30.76l168.408,-97.304c10.679,-6.024 24.827,-6.024 35.415,0l168.594,97.394c10.953,6.298 17.707,18.073 17.707,30.761l0,194.515c0,12.596 -6.754,24.371 -17.707,30.761l-168.594,97.303c-5.385,3.104 -11.502,4.746 -17.707,4.746zm136.098,-191.775c0,-36.421 -24.646,-46.096 -76.4,-52.941c-52.396,-6.938 -57.689,-10.498 -57.689,-22.729c0,-10.131 4.473,-23.641 43.266,-23.641c34.596,0 47.375,7.485 52.668,30.853c0.457,2.19 2.467,3.833 4.746,3.833l21.91,0c1.367,0 2.645,-0.547 3.559,-1.552c0.914,-1.003 1.369,-2.373 1.275,-3.743c-3.375,-40.252 -30.121,-58.965 -84.158,-58.965c-48.103,0 -76.764,20.264 -76.764,54.311c0,36.876 28.569,47.101 74.664,51.662c55.225,5.387 59.514,13.511 59.514,24.373c0,18.805 -15.15,26.835 -50.658,26.835c-44.635,0 -54.402,-11.227 -57.688,-33.406c-0.365,-2.373 -2.374,-4.107 -4.837,-4.107l-21.817,0c-2.738,0 -4.836,2.191 -4.836,4.836c0,28.39 15.426,62.254 89.271,62.254c53.304,-0.092 83.974,-21.181 83.974,-57.873l0,0z"/>
 </g>
</svg>