<svg width="128" height="128" xmlns="http://www.w3.org/2000/svg" clip-rule="evenodd">

 <g>
  <title>background</title>
  <rect fill="none" id="canvas_background" height="402" width="582" y="-1" x="-1"/>
 </g>
 <g>
  <title>Layer 1</title>
  <circle transform="matrix(1.25305,0,0,1.25305,-16.3076,4.57191) " id="svg_2" fill="rgb(97,218,251)" r="9.3" cy="47.5" cx="64"/>
  <path id="svg_3" fill="rgb(97,218,251)" fill-rule="nonzero" d="m63.8876,106.946095c9.147265,8.896655 18.169225,14.159465 25.436915,14.159465c2.380795,0 4.636285,-0.50122 6.51586,-1.628965c6.51586,-3.75915 8.896655,-13.157025 6.641165,-26.56466c-0.375915,-2.380795 -0.877135,-4.76159 -1.50366,-7.26769c2.5061,-0.75183 4.76159,-1.50366 7.01708,-2.25549c12.655805,-4.886895 19.672885,-11.653365 19.672885,-19.04636c0,-7.5183 -7.01708,-14.28477 -19.672885,-19.04636c-2.25549,-0.877135 -4.51098,-1.628965 -7.01708,-2.25549c0.626525,-2.5061 1.127745,-4.886895 1.50366,-7.26769c2.130185,-13.658245 -0.25061,-23.181425 -6.76647,-26.940575c-1.879575,-1.127745 -4.135065,-1.628965 -6.51586,-1.628965c-7.142385,0 -16.28965,5.26281 -25.436915,14.159465c-9.02196,-8.896655 -18.04392,-14.159465 -25.31161,-14.159465c-2.380795,0 -4.636285,0.50122 -6.51586,1.628965c-6.51586,3.75915 -8.896655,13.157025 -6.641165,26.56466c0.375915,2.380795 0.877135,4.76159 1.50366,7.26769c-2.5061,0.75183 -4.76159,1.50366 -7.01708,2.25549c-12.655805,4.886895 -19.672885,11.653365 -19.672885,19.04636c0,7.5183 7.01708,14.28477 19.672885,19.04636c2.25549,0.877135 4.51098,1.628965 7.01708,2.25549c-0.626525,2.5061 -1.127745,4.886895 -1.50366,7.26769c-2.130185,13.407635 0.25061,22.930815 6.641165,26.56466c1.879575,1.127745 4.135065,1.628965 6.51586,1.628965c7.26769,0.25061 16.28965,-5.0122 25.436915,-13.78355zm-7.01708,-16.916175c2.25549,0.125305 4.636285,0.125305 7.01708,0.125305c2.380795,0 4.76159,0 7.01708,-0.125305c-2.25549,3.00732 -4.636285,5.76403 -7.01708,8.395435c-2.380795,-2.631405 -4.76159,-5.388115 -7.01708,-8.395435zm-15.53782,-12.906415c1.25305,2.130185 2.380795,4.135065 3.75915,6.139945c-3.884455,-0.50122 -7.5183,-1.127745 -11.02684,-1.879575c1.127745,-3.383235 2.380795,-6.891775 3.884455,-10.400315c1.00244,2.00488 2.130185,4.135065 3.383235,6.139945zm-7.26769,-30.198505c3.50854,-0.75183 7.142385,-1.378355 11.02684,-1.879575c-1.25305,2.00488 -2.5061,4.00976 -3.75915,6.139945c-1.25305,2.130185 -2.380795,4.135065 -3.383235,6.26525c-1.628965,-3.633845 -2.882015,-7.142385 -3.884455,-10.52562zm6.891775,17.166785c1.628965,-3.383235 3.383235,-6.76647 5.388115,-10.149705c1.879575,-3.25793 4.00976,-6.51586 6.139945,-9.77379c3.75915,-0.25061 7.5183,-0.375915 11.402755,-0.375915c4.00976,0 7.76891,0.125305 11.402755,0.375915c2.25549,3.25793 4.26037,6.51586 6.139945,9.77379c2.00488,3.383235 3.75915,6.76647 5.388115,10.149705c-1.628965,3.383235 -3.383235,6.76647 -5.388115,10.149705c-1.879575,3.25793 -4.00976,6.51586 -6.139945,9.77379c-3.75915,0.25061 -7.5183,0.375915 -11.402755,0.375915c-4.00976,0 -7.76891,-0.125305 -11.402755,-0.375915c-2.25549,-3.25793 -4.26037,-6.51586 -6.139945,-9.77379c-2.00488,-3.383235 -3.75915,-6.76647 -5.388115,-10.149705zm48.994255,-6.76647l-3.383235,-6.26525c-1.25305,-2.130185 -2.380795,-4.135065 -3.75915,-6.139945c3.884455,0.50122 7.5183,1.127745 11.02684,1.879575c-1.127745,3.50854 -2.380795,7.01708 -3.884455,10.52562zm0,13.53294c1.50366,3.50854 2.75671,7.01708 3.884455,10.400315c-3.50854,0.75183 -7.142385,1.378355 -11.02684,1.879575c1.25305,-2.00488 2.5061,-4.00976 3.75915,-6.139945c1.127745,-1.879575 2.25549,-4.00976 3.383235,-6.139945zm2.882015,43.480835c-1.00244,0.626525 -2.25549,0.877135 -3.633845,0.877135c-6.139945,0 -13.78355,-5.0122 -21.30185,-12.5305c3.633845,-3.884455 7.142385,-8.27013 10.650925,-13.157025c5.889335,-0.50122 11.52806,-1.378355 16.79087,-2.631405c0.626525,2.25549 1.00244,4.51098 1.378355,6.76647c1.75427,10.650925 0.375915,18.29453 -3.884455,20.675325zm6.51586,-66.035735c14.03416,4.00976 22.429595,10.149705 22.429595,15.78843c0,4.886895 -5.76403,9.77379 -15.913735,13.658245c-2.00488,0.75183 -4.26037,1.50366 -6.51586,2.130185c-1.628965,-5.137505 -3.633845,-10.400315 -6.139945,-15.78843c2.5061,-5.388115 4.636285,-10.650925 6.139945,-15.78843zm-10.0244,-35.33601c1.378355,0 2.5061,0.25061 3.633845,0.877135c4.135065,2.380795 5.638725,9.899095 3.884455,20.675325c-0.375915,2.130185 -0.877135,4.385675 -1.378355,6.76647c-5.26281,-1.127745 -10.901535,-2.00488 -16.79087,-2.631405c-3.383235,-4.886895 -7.01708,-9.27257 -10.650925,-13.157025c7.5183,-7.392995 15.161905,-12.5305 21.30185,-12.5305zm-18.419835,25.186305c-2.25549,-0.125305 -4.636285,-0.125305 -7.01708,-0.125305c-2.380795,0 -4.76159,0 -7.01708,0.125305c2.25549,-3.00732 4.636285,-5.76403 7.01708,-8.395435c2.380795,2.631405 4.76159,5.51342 7.01708,8.395435zm-35.962535,-24.30917c1.00244,-0.626525 2.25549,-0.877135 3.633845,-0.877135c6.139945,0 13.78355,5.0122 21.30185,12.5305c-3.633845,3.884455 -7.142385,8.27013 -10.650925,13.157025c-5.889335,0.50122 -11.52806,1.378355 -16.79087,2.631405c-0.626525,-2.25549 -1.00244,-4.51098 -1.378355,-6.76647c-1.75427,-10.650925 -0.375915,-18.169225 3.884455,-20.675325zm-6.51586,66.035735c-14.03416,-4.00976 -22.429595,-10.149705 -22.429595,-15.78843c0,-4.886895 5.76403,-9.77379 15.913735,-13.658245c2.00488,-0.75183 4.26037,-1.50366 6.51586,-2.130185c1.628965,5.137505 3.633845,10.400315 6.139945,15.78843c-2.5061,5.388115 -4.636285,10.77623 -6.139945,15.78843zm2.631405,13.78355c0.375915,-2.130185 0.877135,-4.385675 1.378355,-6.76647c5.26281,1.127745 10.901535,2.00488 16.79087,2.631405c3.383235,4.886895 7.01708,9.27257 10.650925,13.157025c-7.5183,7.392995 -15.161905,12.5305 -21.30185,12.5305c-1.378355,0 -2.5061,-0.25061 -3.633845,-0.877135c-4.26037,-2.380795 -5.638725,-10.0244 -3.884455,-20.675325z"/>
 </g>
</svg>